<?xml version="1.0" encoding="UTF-8"?>
<svg xmlns="http://www.w3.org/2000/svg" xmlns:xlink="http://www.w3.org/1999/xlink" viewBox="0 0 50 50" width="100px" height="100px">
<g id="surface13623171">
<path style=" stroke:none;fill-rule:nonzero;fill:rgb(95.686275%,55.29412%,0%);fill-opacity:1;" d="M 14.5 3 C 8.160156 3 3 8.160156 3 14.5 L 3 35.5 C 3 41.839844 8.160156 47 14.5 47 L 35.5 47 C 41.839844 47 47 41.839844 47 35.5 L 47 14.5 C 47 8.160156 41.839844 3 35.5 3 Z M 14.5 5 L 35.5 5 C 40.757812 5 45 9.242188 45 14.5 L 45 35.5 C 45 40.757812 40.757812 45 35.5 45 L 14.5 45 C 9.242188 45 5 40.757812 5 35.5 L 5 14.5 C 5 9.242188 9.242188 5 14.5 5 Z M 28.003906 9 C 27.613281 9 27.257812 9.226562 27.09375 9.582031 C 26.929688 9.9375 26.988281 10.355469 27.242188 10.652344 C 27.242188 10.652344 30.910156 14.992188 30.996094 20.515625 C 31.015625 21.558594 30.648438 22.945312 30.316406 24.246094 C 28.460938 22.910156 20.238281 16.953125 15.714844 12.300781 C 15.355469 11.929688 14.765625 11.898438 14.363281 12.230469 C 13.960938 12.5625 13.882812 13.144531 14.179688 13.570312 C 14.179688 13.570312 15.8125 15.910156 17.738281 18.492188 C 18.101562 18.980469 18.390625 19.238281 18.761719 19.726562 C 16.816406 18.351562 14.9375 17.078125 11.65625 14.242188 C 11.265625 13.910156 10.6875 13.925781 10.316406 14.277344 C 9.941406 14.628906 9.898438 15.203125 10.210938 15.609375 C 10.210938 15.609375 12.757812 18.914062 15.925781 22.582031 C 18.679688 25.773438 21.722656 28.957031 24.296875 30.859375 C 23.390625 31.382812 21.976562 31.996094 19.5 31.996094 C 16.714844 32 12.953125 31.105469 8.554688 28.167969 C 8.175781 27.914062 7.671875 27.949219 7.332031 28.253906 C 6.992188 28.558594 6.902344 29.054688 7.113281 29.457031 C 7.113281 29.457031 12.617188 40 25.125 40 C 27.984375 40 30.03125 39.230469 31.597656 38.503906 C 33.160156 37.777344 34.21875 37.191406 35.199219 37.191406 C 37.289062 37.191406 38.753906 39.503906 38.753906 39.503906 C 38.945312 39.835938 39.308594 40.027344 39.6875 40 C 40.070312 39.972656 40.398438 39.730469 40.542969 39.375 C 41.515625 36.964844 40.726562 34.511719 39.804688 32.722656 C 39.050781 31.269531 38.425781 30.613281 38.121094 30.257812 C 38.425781 29.605469 39 28.207031 39 25.875 C 39 21.582031 37.128906 15.082031 28.570312 9.175781 C 28.402344 9.0625 28.207031 9 28.003906 9 Z M 31.601562 14.371094 C 35.957031 18.75 37 22.925781 37 25.875 C 37 28.394531 36.132812 29.878906 36.132812 29.878906 C 35.917969 30.253906 35.96875 30.730469 36.261719 31.050781 C 36.261719 31.050781 37.238281 32.121094 38.023438 33.644531 C 38.503906 34.570312 38.769531 35.613281 38.847656 36.652344 C 37.96875 35.902344 36.773438 35.195312 35.199219 35.195312 C 33.515625 35.195312 32.21875 36.011719 30.753906 36.691406 C 29.289062 37.367188 27.632812 38 25.125 38 C 18.460938 38 14.269531 34.847656 11.742188 32.160156 C 14.667969 33.453125 17.3125 34 19.5 33.996094 C 23.976562 33.996094 26.648438 31.761719 26.648438 31.761719 C 26.894531 31.550781 27.023438 31.234375 26.996094 30.914062 C 26.96875 30.589844 26.785156 30.304688 26.507812 30.136719 C 24.46875 28.9375 20.832031 25.15625 17.769531 21.636719 C 18.628906 22.25 19.585938 22.960938 20.234375 23.375 C 22.363281 24.75 23.449219 25.183594 23.449219 25.183594 C 23.90625 25.363281 24.421875 25.183594 24.671875 24.761719 C 24.921875 24.34375 24.832031 23.804688 24.457031 23.488281 C 23.980469 23.089844 22.757812 21.453125 21.777344 20.246094 C 26.21875 23.796875 30.421875 26.816406 30.421875 26.816406 C 30.675781 26.996094 31.003906 27.046875 31.300781 26.953125 C 31.601562 26.859375 31.835938 26.628906 31.941406 26.332031 C 32.609375 24.457031 33.027344 22.28125 32.996094 20.484375 C 32.960938 18.128906 32.328125 16.128906 31.601562 14.371094 Z M 31.601562 14.371094 "/>
</g>
</svg>
